<svg width="36" height="36" viewBox="0 0 36 36" fill="none" xmlns="http://www.w3.org/2000/svg">
<path d="M31.065 10.5598C30.555 11.0698 30.06 11.5648 30.045 12.0598C30 12.5398 30.51 13.0348 30.99 13.4998C31.71 14.2498 32.415 14.9248 32.385 15.6598C32.355 16.3948 31.59 17.1598 30.825 17.9098L24.63 24.1198L22.5 21.9898L28.875 15.6298L27.435 14.1898L25.305 16.3048L19.68 10.6798L25.44 4.93484C26.025 4.34984 27 4.34984 27.555 4.93484L31.065 8.44484C31.65 8.99984 31.65 9.97484 31.065 10.5598ZM4.5 25.8748L18.84 11.5198L24.465 17.1448L10.125 31.4998H4.5V25.8748Z" fill="white"/>
</svg>
