<svg width="478" height="832" viewBox="0 0 478 832" fill="none" xmlns="http://www.w3.org/2000/svg">
<g filter="url(#filter0_f_68_199)">
<ellipse cx="235" cy="16" rx="235" ry="16" transform="matrix(-1 0 0 1 480 651)" fill="url(#paint0_radial_68_199)" fill-opacity="0.35"/>
</g>
<g filter="url(#filter1_d_68_199)">
<rect x="68" y="199" width="194" height="194" fill="#D9D9D9"/>
</g>
<g filter="url(#filter2_d_68_199)">
<rect x="227" y="246" width="194" height="194" fill="#D9D9D9"/>
</g>
<g filter="url(#filter3_d_68_199)">
<rect x="130" y="371" width="194" height="194" fill="#D9D9D9"/>
</g>
<path d="M132.22 283.72L130.71 281.43L131.61 280.71L133.34 282.94L132.22 283.72ZM129.74 283.72L128.62 282.94L130.36 280.71L131.25 281.43L129.74 283.72ZM130.71 281.43L127.92 280.65L128.37 279.33L130.98 280.26L130.71 281.43ZM130.98 281.52C130.787 281.52 130.62 281.46 130.48 281.34C130.347 281.213 130.28 281.06 130.28 280.88C130.28 280.72 130.347 280.573 130.48 280.44C130.62 280.3 130.787 280.23 130.98 280.23C131.173 280.23 131.333 280.3 131.46 280.44C131.593 280.573 131.66 280.72 131.66 280.88C131.66 281.06 131.593 281.213 131.46 281.34C131.333 281.46 131.173 281.52 130.98 281.52ZM130.36 280.71L130.27 278H131.71L131.61 280.71H130.36ZM131.25 281.43L130.98 280.26L133.59 279.33L134.04 280.65L131.25 281.43ZM142.248 294V282.75C142.248 281.977 142.368 281.337 142.608 280.83C142.848 280.323 143.164 279.923 143.558 279.63C143.958 279.337 144.394 279.13 144.868 279.01C145.341 278.883 145.814 278.82 146.288 278.82C146.754 278.82 147.144 278.86 147.458 278.94C147.778 279.02 148.024 279.11 148.198 279.21V280.76C148.031 280.66 147.821 280.567 147.568 280.48C147.314 280.387 146.974 280.34 146.548 280.34C146.268 280.34 145.988 280.377 145.708 280.45C145.434 280.517 145.184 280.643 144.958 280.83C144.738 281.01 144.561 281.277 144.428 281.63C144.294 281.983 144.228 282.45 144.228 283.03V294H142.248ZM139.638 285.52V284H148.058V285.52H139.638ZM155.557 294.22C155.117 294.22 154.664 294.16 154.197 294.04C153.737 293.927 153.294 293.743 152.867 293.49C152.44 293.237 152.054 292.907 151.707 292.5C151.367 292.087 151.097 291.59 150.897 291.01C150.704 290.43 150.607 289.753 150.607 288.98C150.607 288.213 150.704 287.54 150.897 286.96C151.097 286.38 151.367 285.887 151.707 285.48C152.054 285.073 152.44 284.743 152.867 284.49C153.294 284.237 153.737 284.053 154.197 283.94C154.664 283.82 155.117 283.76 155.557 283.76C155.997 283.76 156.447 283.82 156.907 283.94C157.374 284.053 157.82 284.237 158.247 284.49C158.68 284.743 159.067 285.073 159.407 285.48C159.747 285.887 160.017 286.38 160.217 286.96C160.417 287.54 160.517 288.213 160.517 288.98C160.517 289.753 160.417 290.43 160.217 291.01C160.017 291.59 159.747 292.087 159.407 292.5C159.067 292.907 158.68 293.237 158.247 293.49C157.82 293.743 157.374 293.927 156.907 294.04C156.447 294.16 155.997 294.22 155.557 294.22ZM155.557 292.69C155.89 292.69 156.227 292.63 156.567 292.51C156.907 292.383 157.22 292.177 157.507 291.89C157.8 291.603 158.037 291.223 158.217 290.75C158.404 290.27 158.497 289.68 158.497 288.98C158.497 288.287 158.404 287.707 158.217 287.24C158.037 286.767 157.8 286.387 157.507 286.1C157.22 285.813 156.907 285.607 156.567 285.48C156.227 285.353 155.89 285.29 155.557 285.29C155.23 285.29 154.894 285.353 154.547 285.48C154.207 285.607 153.89 285.813 153.597 286.1C153.31 286.387 153.077 286.767 152.897 287.24C152.717 287.707 152.627 288.287 152.627 288.98C152.627 289.68 152.717 290.27 152.897 290.75C153.077 291.223 153.31 291.603 153.597 291.89C153.89 292.177 154.207 292.383 154.547 292.51C154.894 292.63 155.23 292.69 155.557 292.69ZM166.795 291.13V280.83H168.785V291.07C168.785 291.51 168.845 291.857 168.965 292.11C169.092 292.363 169.262 292.547 169.475 292.66C169.688 292.767 169.928 292.82 170.195 292.82C170.468 292.82 170.722 292.767 170.955 292.66C171.188 292.553 171.375 292.37 171.515 292.11C171.655 291.85 171.725 291.487 171.725 291.02H173.355C173.355 291.607 173.262 292.103 173.075 292.51C172.888 292.91 172.635 293.233 172.315 293.48C172.002 293.727 171.642 293.907 171.235 294.02C170.835 294.133 170.415 294.19 169.975 294.19C169.522 294.19 169.102 294.137 168.715 294.03C168.335 293.923 168.002 293.75 167.715 293.51C167.428 293.263 167.202 292.943 167.035 292.55C166.875 292.157 166.795 291.683 166.795 291.13ZM164.325 285.52V284H173.445V285.52H164.325ZM183.021 294.22C182.581 294.22 182.128 294.16 181.661 294.04C181.201 293.927 180.758 293.743 180.331 293.49C179.904 293.237 179.518 292.907 179.171 292.5C178.831 292.087 178.561 291.59 178.361 291.01C178.168 290.43 178.071 289.753 178.071 288.98C178.071 288.213 178.168 287.54 178.361 286.96C178.561 286.38 178.831 285.887 179.171 285.48C179.518 285.073 179.904 284.743 180.331 284.49C180.758 284.237 181.201 284.053 181.661 283.94C182.128 283.82 182.581 283.76 183.021 283.76C183.461 283.76 183.911 283.82 184.371 283.94C184.838 284.053 185.284 284.237 185.711 284.49C186.144 284.743 186.531 285.073 186.871 285.48C187.211 285.887 187.481 286.38 187.681 286.96C187.881 287.54 187.981 288.213 187.981 288.98C187.981 289.753 187.881 290.43 187.681 291.01C187.481 291.59 187.211 292.087 186.871 292.5C186.531 292.907 186.144 293.237 185.711 293.49C185.284 293.743 184.838 293.927 184.371 294.04C183.911 294.16 183.461 294.22 183.021 294.22ZM183.021 292.69C183.354 292.69 183.691 292.63 184.031 292.51C184.371 292.383 184.684 292.177 184.971 291.89C185.264 291.603 185.501 291.223 185.681 290.75C185.868 290.27 185.961 289.68 185.961 288.98C185.961 288.287 185.868 287.707 185.681 287.24C185.501 286.767 185.264 286.387 184.971 286.1C184.684 285.813 184.371 285.607 184.031 285.48C183.691 285.353 183.354 285.29 183.021 285.29C182.694 285.29 182.358 285.353 182.011 285.48C181.671 285.607 181.354 285.813 181.061 286.1C180.774 286.387 180.541 286.767 180.361 287.24C180.181 287.707 180.091 288.287 180.091 288.98C180.091 289.68 180.181 290.27 180.361 290.75C180.541 291.223 180.774 291.603 181.061 291.89C181.354 292.177 181.671 292.383 182.011 292.51C182.358 292.63 182.694 292.69 183.021 292.69ZM197.599 283.72L196.089 281.43L196.989 280.71L198.719 282.94L197.599 283.72ZM195.119 283.72L193.999 282.94L195.739 280.71L196.629 281.43L195.119 283.72ZM196.089 281.43L193.299 280.65L193.749 279.33L196.359 280.26L196.089 281.43ZM196.359 281.52C196.166 281.52 195.999 281.46 195.859 281.34C195.726 281.213 195.659 281.06 195.659 280.88C195.659 280.72 195.726 280.573 195.859 280.44C195.999 280.3 196.166 280.23 196.359 280.23C196.552 280.23 196.712 280.3 196.839 280.44C196.972 280.573 197.039 280.72 197.039 280.88C197.039 281.06 196.972 281.213 196.839 281.34C196.712 281.46 196.552 281.52 196.359 281.52ZM195.739 280.71L195.649 278H197.089L196.989 280.71H195.739ZM196.629 281.43L196.359 280.26L198.969 279.33L199.419 280.65L196.629 281.43Z" fill="#565555"/>
<path d="M291.22 332.72L289.71 330.43L290.61 329.71L292.34 331.94L291.22 332.72ZM288.74 332.72L287.62 331.94L289.36 329.71L290.25 330.43L288.74 332.72ZM289.71 330.43L286.92 329.65L287.37 328.33L289.98 329.26L289.71 330.43ZM289.98 330.52C289.787 330.52 289.62 330.46 289.48 330.34C289.347 330.213 289.28 330.06 289.28 329.88C289.28 329.72 289.347 329.573 289.48 329.44C289.62 329.3 289.787 329.23 289.98 329.23C290.173 329.23 290.333 329.3 290.46 329.44C290.593 329.573 290.66 329.72 290.66 329.88C290.66 330.06 290.593 330.213 290.46 330.34C290.333 330.46 290.173 330.52 289.98 330.52ZM289.36 329.71L289.27 327H290.71L290.61 329.71H289.36ZM290.25 330.43L289.98 329.26L292.59 328.33L293.04 329.65L290.25 330.43ZM301.248 343V331.75C301.248 330.977 301.368 330.337 301.608 329.83C301.848 329.323 302.164 328.923 302.558 328.63C302.958 328.337 303.394 328.13 303.868 328.01C304.341 327.883 304.814 327.82 305.288 327.82C305.754 327.82 306.144 327.86 306.458 327.94C306.778 328.02 307.024 328.11 307.198 328.21V329.76C307.031 329.66 306.821 329.567 306.568 329.48C306.314 329.387 305.974 329.34 305.548 329.34C305.268 329.34 304.988 329.377 304.708 329.45C304.434 329.517 304.184 329.643 303.958 329.83C303.738 330.01 303.561 330.277 303.428 330.63C303.294 330.983 303.228 331.45 303.228 332.03V343H301.248ZM298.638 334.52V333H307.058V334.52H298.638ZM314.557 343.22C314.117 343.22 313.664 343.16 313.197 343.04C312.737 342.927 312.294 342.743 311.867 342.49C311.44 342.237 311.054 341.907 310.707 341.5C310.367 341.087 310.097 340.59 309.897 340.01C309.704 339.43 309.607 338.753 309.607 337.98C309.607 337.213 309.704 336.54 309.897 335.96C310.097 335.38 310.367 334.887 310.707 334.48C311.054 334.073 311.44 333.743 311.867 333.49C312.294 333.237 312.737 333.053 313.197 332.94C313.664 332.82 314.117 332.76 314.557 332.76C314.997 332.76 315.447 332.82 315.907 332.94C316.374 333.053 316.82 333.237 317.247 333.49C317.68 333.743 318.067 334.073 318.407 334.48C318.747 334.887 319.017 335.38 319.217 335.96C319.417 336.54 319.517 337.213 319.517 337.98C319.517 338.753 319.417 339.43 319.217 340.01C319.017 340.59 318.747 341.087 318.407 341.5C318.067 341.907 317.68 342.237 317.247 342.49C316.82 342.743 316.374 342.927 315.907 343.04C315.447 343.16 314.997 343.22 314.557 343.22ZM314.557 341.69C314.89 341.69 315.227 341.63 315.567 341.51C315.907 341.383 316.22 341.177 316.507 340.89C316.8 340.603 317.037 340.223 317.217 339.75C317.404 339.27 317.497 338.68 317.497 337.98C317.497 337.287 317.404 336.707 317.217 336.24C317.037 335.767 316.8 335.387 316.507 335.1C316.22 334.813 315.907 334.607 315.567 334.48C315.227 334.353 314.89 334.29 314.557 334.29C314.23 334.29 313.894 334.353 313.547 334.48C313.207 334.607 312.89 334.813 312.597 335.1C312.31 335.387 312.077 335.767 311.897 336.24C311.717 336.707 311.627 337.287 311.627 337.98C311.627 338.68 311.717 339.27 311.897 339.75C312.077 340.223 312.31 340.603 312.597 340.89C312.89 341.177 313.207 341.383 313.547 341.51C313.894 341.63 314.23 341.69 314.557 341.69ZM325.795 340.13V329.83H327.785V340.07C327.785 340.51 327.845 340.857 327.965 341.11C328.092 341.363 328.262 341.547 328.475 341.66C328.688 341.767 328.928 341.82 329.195 341.82C329.468 341.82 329.722 341.767 329.955 341.66C330.188 341.553 330.375 341.37 330.515 341.11C330.655 340.85 330.725 340.487 330.725 340.02H332.355C332.355 340.607 332.262 341.103 332.075 341.51C331.888 341.91 331.635 342.233 331.315 342.48C331.002 342.727 330.642 342.907 330.235 343.02C329.835 343.133 329.415 343.19 328.975 343.19C328.522 343.19 328.102 343.137 327.715 343.03C327.335 342.923 327.002 342.75 326.715 342.51C326.428 342.263 326.202 341.943 326.035 341.55C325.875 341.157 325.795 340.683 325.795 340.13ZM323.325 334.52V333H332.445V334.52H323.325ZM342.021 343.22C341.581 343.22 341.128 343.16 340.661 343.04C340.201 342.927 339.758 342.743 339.331 342.49C338.904 342.237 338.518 341.907 338.171 341.5C337.831 341.087 337.561 340.59 337.361 340.01C337.168 339.43 337.071 338.753 337.071 337.98C337.071 337.213 337.168 336.54 337.361 335.96C337.561 335.38 337.831 334.887 338.171 334.48C338.518 334.073 338.904 333.743 339.331 333.49C339.758 333.237 340.201 333.053 340.661 332.94C341.128 332.82 341.581 332.76 342.021 332.76C342.461 332.76 342.911 332.82 343.371 332.94C343.838 333.053 344.284 333.237 344.711 333.49C345.144 333.743 345.531 334.073 345.871 334.48C346.211 334.887 346.481 335.38 346.681 335.96C346.881 336.54 346.981 337.213 346.981 337.98C346.981 338.753 346.881 339.43 346.681 340.01C346.481 340.59 346.211 341.087 345.871 341.5C345.531 341.907 345.144 342.237 344.711 342.49C344.284 342.743 343.838 342.927 343.371 343.04C342.911 343.16 342.461 343.22 342.021 343.22ZM342.021 341.69C342.354 341.69 342.691 341.63 343.031 341.51C343.371 341.383 343.684 341.177 343.971 340.89C344.264 340.603 344.501 340.223 344.681 339.75C344.868 339.27 344.961 338.68 344.961 337.98C344.961 337.287 344.868 336.707 344.681 336.24C344.501 335.767 344.264 335.387 343.971 335.1C343.684 334.813 343.371 334.607 343.031 334.48C342.691 334.353 342.354 334.29 342.021 334.29C341.694 334.29 341.358 334.353 341.011 334.48C340.671 334.607 340.354 334.813 340.061 335.1C339.774 335.387 339.541 335.767 339.361 336.24C339.181 336.707 339.091 337.287 339.091 337.98C339.091 338.68 339.181 339.27 339.361 339.75C339.541 340.223 339.774 340.603 340.061 340.89C340.354 341.177 340.671 341.383 341.011 341.51C341.358 341.63 341.694 341.69 342.021 341.69ZM356.599 332.72L355.089 330.43L355.989 329.71L357.719 331.94L356.599 332.72ZM354.119 332.72L352.999 331.94L354.739 329.71L355.629 330.43L354.119 332.72ZM355.089 330.43L352.299 329.65L352.749 328.33L355.359 329.26L355.089 330.43ZM355.359 330.52C355.166 330.52 354.999 330.46 354.859 330.34C354.726 330.213 354.659 330.06 354.659 329.88C354.659 329.72 354.726 329.573 354.859 329.44C354.999 329.3 355.166 329.23 355.359 329.23C355.552 329.23 355.712 329.3 355.839 329.44C355.972 329.573 356.039 329.72 356.039 329.88C356.039 330.06 355.972 330.213 355.839 330.34C355.712 330.46 355.552 330.52 355.359 330.52ZM354.739 329.71L354.649 327H356.089L355.989 329.71H354.739ZM355.629 330.43L355.359 329.26L357.969 328.33L358.419 329.65L355.629 330.43Z" fill="#565555"/>
<path d="M194.22 453.72L192.71 451.43L193.61 450.71L195.34 452.94L194.22 453.72ZM191.74 453.72L190.62 452.94L192.36 450.71L193.25 451.43L191.74 453.72ZM192.71 451.43L189.92 450.65L190.37 449.33L192.98 450.26L192.71 451.43ZM192.98 451.52C192.787 451.52 192.62 451.46 192.48 451.34C192.347 451.213 192.28 451.06 192.28 450.88C192.28 450.72 192.347 450.573 192.48 450.44C192.62 450.3 192.787 450.23 192.98 450.23C193.173 450.23 193.333 450.3 193.46 450.44C193.593 450.573 193.66 450.72 193.66 450.88C193.66 451.06 193.593 451.213 193.46 451.34C193.333 451.46 193.173 451.52 192.98 451.52ZM192.36 450.71L192.27 448H193.71L193.61 450.71H192.36ZM193.25 451.43L192.98 450.26L195.59 449.33L196.04 450.65L193.25 451.43ZM204.248 464V452.75C204.248 451.977 204.368 451.337 204.608 450.83C204.848 450.323 205.164 449.923 205.558 449.63C205.958 449.337 206.394 449.13 206.868 449.01C207.341 448.883 207.814 448.82 208.288 448.82C208.754 448.82 209.144 448.86 209.458 448.94C209.778 449.02 210.024 449.11 210.198 449.21V450.76C210.031 450.66 209.821 450.567 209.568 450.48C209.314 450.387 208.974 450.34 208.548 450.34C208.268 450.34 207.988 450.377 207.708 450.45C207.434 450.517 207.184 450.643 206.958 450.83C206.738 451.01 206.561 451.277 206.428 451.63C206.294 451.983 206.228 452.45 206.228 453.03V464H204.248ZM201.638 455.52V454H210.058V455.52H201.638ZM217.557 464.22C217.117 464.22 216.664 464.16 216.197 464.04C215.737 463.927 215.294 463.743 214.867 463.49C214.44 463.237 214.054 462.907 213.707 462.5C213.367 462.087 213.097 461.59 212.897 461.01C212.704 460.43 212.607 459.753 212.607 458.98C212.607 458.213 212.704 457.54 212.897 456.96C213.097 456.38 213.367 455.887 213.707 455.48C214.054 455.073 214.44 454.743 214.867 454.49C215.294 454.237 215.737 454.053 216.197 453.94C216.664 453.82 217.117 453.76 217.557 453.76C217.997 453.76 218.447 453.82 218.907 453.94C219.374 454.053 219.82 454.237 220.247 454.49C220.68 454.743 221.067 455.073 221.407 455.48C221.747 455.887 222.017 456.38 222.217 456.96C222.417 457.54 222.517 458.213 222.517 458.98C222.517 459.753 222.417 460.43 222.217 461.01C222.017 461.59 221.747 462.087 221.407 462.5C221.067 462.907 220.68 463.237 220.247 463.49C219.82 463.743 219.374 463.927 218.907 464.04C218.447 464.16 217.997 464.22 217.557 464.22ZM217.557 462.69C217.89 462.69 218.227 462.63 218.567 462.51C218.907 462.383 219.22 462.177 219.507 461.89C219.8 461.603 220.037 461.223 220.217 460.75C220.404 460.27 220.497 459.68 220.497 458.98C220.497 458.287 220.404 457.707 220.217 457.24C220.037 456.767 219.8 456.387 219.507 456.1C219.22 455.813 218.907 455.607 218.567 455.48C218.227 455.353 217.89 455.29 217.557 455.29C217.23 455.29 216.894 455.353 216.547 455.48C216.207 455.607 215.89 455.813 215.597 456.1C215.31 456.387 215.077 456.767 214.897 457.24C214.717 457.707 214.627 458.287 214.627 458.98C214.627 459.68 214.717 460.27 214.897 460.75C215.077 461.223 215.31 461.603 215.597 461.89C215.89 462.177 216.207 462.383 216.547 462.51C216.894 462.63 217.23 462.69 217.557 462.69ZM228.795 461.13V450.83H230.785V461.07C230.785 461.51 230.845 461.857 230.965 462.11C231.092 462.363 231.262 462.547 231.475 462.66C231.688 462.767 231.928 462.82 232.195 462.82C232.468 462.82 232.722 462.767 232.955 462.66C233.188 462.553 233.375 462.37 233.515 462.11C233.655 461.85 233.725 461.487 233.725 461.02H235.355C235.355 461.607 235.262 462.103 235.075 462.51C234.888 462.91 234.635 463.233 234.315 463.48C234.002 463.727 233.642 463.907 233.235 464.02C232.835 464.133 232.415 464.19 231.975 464.19C231.522 464.19 231.102 464.137 230.715 464.03C230.335 463.923 230.002 463.75 229.715 463.51C229.428 463.263 229.202 462.943 229.035 462.55C228.875 462.157 228.795 461.683 228.795 461.13ZM226.325 455.52V454H235.445V455.52H226.325ZM245.021 464.22C244.581 464.22 244.128 464.16 243.661 464.04C243.201 463.927 242.758 463.743 242.331 463.49C241.904 463.237 241.518 462.907 241.171 462.5C240.831 462.087 240.561 461.59 240.361 461.01C240.168 460.43 240.071 459.753 240.071 458.98C240.071 458.213 240.168 457.54 240.361 456.96C240.561 456.38 240.831 455.887 241.171 455.48C241.518 455.073 241.904 454.743 242.331 454.49C242.758 454.237 243.201 454.053 243.661 453.94C244.128 453.82 244.581 453.76 245.021 453.76C245.461 453.76 245.911 453.82 246.371 453.94C246.838 454.053 247.284 454.237 247.711 454.49C248.144 454.743 248.531 455.073 248.871 455.48C249.211 455.887 249.481 456.38 249.681 456.96C249.881 457.54 249.981 458.213 249.981 458.98C249.981 459.753 249.881 460.43 249.681 461.01C249.481 461.59 249.211 462.087 248.871 462.5C248.531 462.907 248.144 463.237 247.711 463.49C247.284 463.743 246.838 463.927 246.371 464.04C245.911 464.16 245.461 464.22 245.021 464.22ZM245.021 462.69C245.354 462.69 245.691 462.63 246.031 462.51C246.371 462.383 246.684 462.177 246.971 461.89C247.264 461.603 247.501 461.223 247.681 460.75C247.868 460.27 247.961 459.68 247.961 458.98C247.961 458.287 247.868 457.707 247.681 457.24C247.501 456.767 247.264 456.387 246.971 456.1C246.684 455.813 246.371 455.607 246.031 455.48C245.691 455.353 245.354 455.29 245.021 455.29C244.694 455.29 244.358 455.353 244.011 455.48C243.671 455.607 243.354 455.813 243.061 456.1C242.774 456.387 242.541 456.767 242.361 457.24C242.181 457.707 242.091 458.287 242.091 458.98C242.091 459.68 242.181 460.27 242.361 460.75C242.541 461.223 242.774 461.603 243.061 461.89C243.354 462.177 243.671 462.383 244.011 462.51C244.358 462.63 244.694 462.69 245.021 462.69ZM259.599 453.72L258.089 451.43L258.989 450.71L260.719 452.94L259.599 453.72ZM257.119 453.72L255.999 452.94L257.739 450.71L258.629 451.43L257.119 453.72ZM258.089 451.43L255.299 450.65L255.749 449.33L258.359 450.26L258.089 451.43ZM258.359 451.52C258.166 451.52 257.999 451.46 257.859 451.34C257.726 451.213 257.659 451.06 257.659 450.88C257.659 450.72 257.726 450.573 257.859 450.44C257.999 450.3 258.166 450.23 258.359 450.23C258.552 450.23 258.712 450.3 258.839 450.44C258.972 450.573 259.039 450.72 259.039 450.88C259.039 451.06 258.972 451.213 258.839 451.34C258.712 451.46 258.552 451.52 258.359 451.52ZM257.739 450.71L257.649 448H259.089L258.989 450.71H257.739ZM258.629 451.43L258.359 450.26L260.969 449.33L261.419 450.65L258.629 451.43Z" fill="#565555"/>
<defs>
<filter id="filter0_f_68_199" x="0" y="641" width="490" height="52" filterUnits="userSpaceOnUse" color-interpolation-filters="sRGB">
<feFlood flood-opacity="0" result="BackgroundImageFix"/>
<feBlend mode="normal" in="SourceGraphic" in2="BackgroundImageFix" result="shape"/>
<feGaussianBlur stdDeviation="5" result="effect1_foregroundBlur_68_199"/>
</filter>
<filter id="filter1_d_68_199" x="64" y="195" width="202" height="202" filterUnits="userSpaceOnUse" color-interpolation-filters="sRGB">
<feFlood flood-opacity="0" result="BackgroundImageFix"/>
<feColorMatrix in="SourceAlpha" type="matrix" values="0 0 0 0 0 0 0 0 0 0 0 0 0 0 0 0 0 0 127 0" result="hardAlpha"/>
<feOffset/>
<feGaussianBlur stdDeviation="2"/>
<feComposite in2="hardAlpha" operator="out"/>
<feColorMatrix type="matrix" values="0 0 0 0 0 0 0 0 0 0 0 0 0 0 0 0 0 0 0.25 0"/>
<feBlend mode="normal" in2="BackgroundImageFix" result="effect1_dropShadow_68_199"/>
<feBlend mode="normal" in="SourceGraphic" in2="effect1_dropShadow_68_199" result="shape"/>
</filter>
<filter id="filter2_d_68_199" x="223" y="242" width="202" height="202" filterUnits="userSpaceOnUse" color-interpolation-filters="sRGB">
<feFlood flood-opacity="0" result="BackgroundImageFix"/>
<feColorMatrix in="SourceAlpha" type="matrix" values="0 0 0 0 0 0 0 0 0 0 0 0 0 0 0 0 0 0 127 0" result="hardAlpha"/>
<feOffset/>
<feGaussianBlur stdDeviation="2"/>
<feComposite in2="hardAlpha" operator="out"/>
<feColorMatrix type="matrix" values="0 0 0 0 0 0 0 0 0 0 0 0 0 0 0 0 0 0 0.25 0"/>
<feBlend mode="normal" in2="BackgroundImageFix" result="effect1_dropShadow_68_199"/>
<feBlend mode="normal" in="SourceGraphic" in2="effect1_dropShadow_68_199" result="shape"/>
</filter>
<filter id="filter3_d_68_199" x="126" y="367" width="202" height="202" filterUnits="userSpaceOnUse" color-interpolation-filters="sRGB">
<feFlood flood-opacity="0" result="BackgroundImageFix"/>
<feColorMatrix in="SourceAlpha" type="matrix" values="0 0 0 0 0 0 0 0 0 0 0 0 0 0 0 0 0 0 127 0" result="hardAlpha"/>
<feOffset/>
<feGaussianBlur stdDeviation="2"/>
<feComposite in2="hardAlpha" operator="out"/>
<feColorMatrix type="matrix" values="0 0 0 0 0 0 0 0 0 0 0 0 0 0 0 0 0 0 0.25 0"/>
<feBlend mode="normal" in2="BackgroundImageFix" result="effect1_dropShadow_68_199"/>
<feBlend mode="normal" in="SourceGraphic" in2="effect1_dropShadow_68_199" result="shape"/>
</filter>
<radialGradient id="paint0_radial_68_199" cx="0" cy="0" r="1" gradientUnits="userSpaceOnUse" gradientTransform="translate(235 16) scale(235 16)">
<stop/>
<stop offset="1" stop-opacity="0"/>
</radialGradient>
</defs>
</svg>
